<?xml version="1.0" encoding="UTF-8"?>
<svg id="Layer_2" data-name="Layer 2" xmlns="http://www.w3.org/2000/svg" viewBox="0 0 192.35 105.59">
  <defs>
    <style>
      .cls-1 {
        fill: #1a9d56;
      }
    </style>
  </defs>
  <g id="Layer_1-2" data-name="Layer 1">
    <g>
      <path class="cls-1" d="M113.73,71.43c-.2-1.54-.61-3-1.28-4.42-.66-1.41-1.6-2.78-2.89-4,.49,.18,1,.63,1.41,1.11,.21,.24,.44,.46,.64,.67,.2,.21,.41,.38,.64,.48-.2-.26-.39-.52-.57-.78-.21-.25-.4-.49-.6-.74-.1-.12-.19-.24-.29-.37-.1-.12-.21-.23-.31-.35-.2-.23-.4-.46-.6-.69-.22-.22-.43-.43-.64-.65l-.32-.32c-.11-.11-.23-.2-.34-.3-.23-.2-.46-.4-.68-.6-.23-.2-.48-.36-.72-.55-.17-.13-.4-.24-.59-.37-.2-.11-.38-.22-.43-.36-.41-.92-.41-1.02-2.47-1.62-2.23-.57-4.53-.63-6.77-.35,1.82-.4,3.75-.5,5.68-.23-3.36-.58-6.77-.12-9.74,1.14-3,1.23-5.64,3.21-7.74,5.8-1.01,1.29-1.91,2.74-2.59,4.36-.68,1.62-1.1,3.44-1.19,5.32-.09,1.88,.17,3.82,.78,5.65,.6,1.83,1.57,3.51,2.71,4.97,.16,.21,.33,.41,.49,.61,.17,.2,.35,.37,.53,.56,.36,.36,.72,.74,1.11,1.04,.38,.31,.78,.64,1.17,.91,.39,.26,.78,.53,1.18,.76,1.61,.95,3.33,1.63,5.04,2.06-.5-.44-1.52-.59-2.28-1.21,2.25,1.05,4.3,1.49,6.02,1.62,1.73,.13,3.15-.04,4.31-.36,.58-.15,1.1-.36,1.56-.57,.46-.23,.86-.47,1.22-.73,.36-.27,.66-.55,.93-.84,.27-.29,.5-.6,.7-.91,.66-1.05,.18-2.21-.38-3.23-.44-.77-1.24-1.55-1.48-2.37-.09-.32-.53-.48-.96-.66-.22-.09-.44-.18-.62-.28-.18-.1-.32-.23-.38-.37-.06,.19-.12,.38-.2,.62-.93-.4-1.53-.87-2.45-1.24-.48,.1-.31,.55-.81,.98-.14-.32-.23-.52-.4-.99-.72,1.09-2.18,.97-3.61,.24-.23-.11-.45-.24-.67-.36-.22-.12-.43-.26-.64-.4-.1-.07-.22-.14-.31-.21l-.27-.22c-.18-.14-.38-.28-.53-.44l-.25-.23c-.08-.08-.17-.15-.24-.23-.14-.16-.29-.32-.44-.47-.12-.17-.25-.33-.38-.49-.13-.16-.22-.33-.34-.49-.51-.77-.8-1.63-.88-2.54-.08-.91,.04-1.86,.33-2.84,.11-.31,.19-.62,.37-.92l.23-.46,.29-.44c.37-.6,.85-1.11,1.32-1.62-.3,.3-.65,.61-.98,1.02,0-.12-.01-.19,.02-.23,.51-.72,1.25-1.44,2.02-2.01,.09-.08,.18-.15,.28-.21,.09-.07,.19-.13,.28-.2,.09-.07,.18-.14,.26-.2,.09-.06,.18-.12,.26-.18,.17-.12,.32-.24,.46-.37,.15-.11,.28-.22,.39-.34,.8-.83,1.92-1.26,3.03-1.42,1.12-.15,2.22-.06,3.28,.07,1.14,.13,2.27,.61,3.22,1.36,.96,.74,1.74,1.75,2.31,2.87,.09,.18,.19,.35,.29,.52,.09,.18,.19,.37,.28,.54,.51,.98,.95,2.02,1.28,3.13,.33,1.1,.58,2.25,.74,3.4,.15,1.16,.24,2.35,.23,3.49l-.02,.85c0,.28-.05,.56-.08,.84-.03,.57-.16,1.12-.25,1.68-.9,4.47-3.49,8.63-6.88,12.07-.83,.81-1.86,1.5-2.8,2.19-1.46,1.07-2.97,2.06-4.52,2.93-1.55,.87-3.16,1.62-4.84,2.17-1.68,.54-3.45,.88-5.26,.78-1.8-.08-3.65-.65-5.22-1.78,1.14,.76,2.03,1.44,3.04,2.05,1,.58,2.14,1.06,3.54,1.11,1.23,.03,2.45-.01,3.68-.16,1.22-.15,2.44-.42,3.62-.84,1.91-.69,3.75-1.55,5.49-2.58,.87-.51,1.72-1.07,2.53-1.67,.41-.3,.79-.62,1.19-.94,.39-.31,.76-.66,1.14-.99,.98-.92,1.91-1.88,2.74-2.93,.43-.51,.81-1.07,1.21-1.6l.55-.83,.28-.42,.26-.43c.13-.22,.26-.56,.42-.82,.15-.28,.34-.49,.62-.47,.65,.04-.07,.97-.39,1.53-.12,.22-.25,.45-.39,.67-.15,.21-.3,.43-.44,.64-.14,.21-.29,.42-.42,.63-.14,.2-.27,.4-.37,.6,2.44-3.05,4.22-6.71,5.07-10.6,.41-1.85,.41-3.86,.22-5.7-.18-1.87-.49-3.65-.71-5.34Z"/>
      <path class="cls-1" d="M179.62,62.89c-.5-2-.76-3.78-1.07-5.6-.06-.32-.31-.7-.13-.95,.3-.42,.41-.62,.41-.91-.01-.29-.16-.66-.47-1.38-.37-.76-.71-1.54-1.13-2.28l-.29-.57c-.1-.19-.19-.38-.3-.56-.21-.37-.42-.75-.62-1.13l.63,.86,.31,.43,.29,.45,.57,.9c.19,.3,.35,.62,.52,.93-1.07-2.26-2.4-4.4-3.95-6.35-1.55-1.95-3.32-3.72-5.24-5.28-3.85-3.11-8.29-5.38-12.98-6.79-2.65-.8-5.41-.92-8.08-.58,.46,.29,1.23,.07,1.91,.38-3.7-.19-6.32,.63-8.02,1.8-.21,.15-.41,.29-.6,.45-.19,.16-.36,.32-.52,.49-.32,.33-.6,.68-.84,1.03-.47,.73-.77,1.49-.96,2.27-.32,1.3,.32,2.62,.99,3.77,.52,.88,1.32,1.67,1.69,2.62,.28,.71,1.54,.59,1.86,1.24,0-.24,.02-.47,.03-.77,.42,.14,.78,.31,1.15,.48,.36,.17,.73,.3,1.17,.4,.38-.25,.13-.73,.45-1.38,.2,.33,.33,.54,.6,1.01,.17-.74,.57-1.19,1.11-1.47,.27-.14,.58-.21,.91-.26,.33-.05,.69-.07,1.06-.04,1.88,.09,3.77,.46,5.54,.75,2.09,.34,4.06,1.09,5.95,1.89,1.22,.49,2.29,1.3,3.3,2.08-.14-.13-.29-.27-.45-.42-.17-.14-.35-.28-.54-.44,.12-.02,.19-.05,.23-.02,.17,.11,.36,.22,.53,.34,.17,.13,.34,.27,.52,.4,.35,.26,.67,.57,1,.84,.33,.27,.62,.55,.93,.77,.15,.11,.31,.2,.45,.29,.14,.09,.28,.16,.43,.21,.25,.09,.49,.21,.72,.34,.21,.14,.42,.3,.61,.46,.4,.32,.71,.73,1.01,1.13,.16,.2,.29,.41,.42,.63,.14,.21,.27,.43,.4,.64,.25,.43,.51,.86,.81,1.27,1.24,1.75,1.82,4.01,1.81,6.22,0,.34,.05,.7,.06,1.03,.35,3.6-.46,7.3-2.09,10.67-1.63,3.38-4.07,6.43-7,8.96-.18,.15-.37,.29-.56,.43-.19,.14-.41,.24-.61,.36l-.62,.35c-.21,.11-.42,.22-.62,.34-1.24,.76-2.47,1.48-3.75,2.1-.16,.08-.32,.17-.48,.24l-.49,.22c-.33,.14-.65,.31-.98,.43-.33,.13-.67,.27-1,.4l-1.03,.34c-1.38,.41-2.84,.73-4.34,.81-.45,.02-.91,.02-1.38,0,1.42-2.37,2.47-4.98,3.06-7.7,.41-1.85,.41-3.86,.22-5.7-.18-1.87-.49-3.65-.71-5.34-.2-1.54-.61-3-1.28-4.42-.66-1.41-1.6-2.78-2.89-4,.49,.18,1,.63,1.41,1.11,.21,.24,.44,.46,.64,.67,.2,.21,.41,.38,.64,.48-.2-.26-.39-.52-.57-.78-.21-.25-.4-.49-.6-.74-.1-.12-.19-.24-.29-.37-.1-.12-.21-.23-.31-.35-.2-.23-.4-.46-.6-.69-.22-.22-.43-.43-.64-.65l-.32-.32c-.11-.11-.23-.2-.34-.3-.23-.2-.46-.4-.68-.6-.23-.2-.48-.36-.72-.55-.17-.13-.4-.24-.59-.37-.2-.11-.38-.22-.43-.36-.41-.92-.41-1.02-2.47-1.62-2.23-.57-4.53-.63-6.77-.35,1.82-.4,3.75-.5,5.68-.23-3.36-.58-6.77-.12-9.74,1.14-3,1.23-5.64,3.21-7.74,5.8-1.01,1.29-1.91,2.74-2.59,4.36-.68,1.62-1.1,3.44-1.19,5.32-.09,1.88,.17,3.82,.78,5.65,.6,1.83,1.57,3.51,2.71,4.97,.16,.21,.33,.41,.49,.61,.17,.2,.35,.37,.53,.56,.36,.36,.72,.74,1.11,1.04,.38,.31,.78,.64,1.17,.91,.39,.26,.78,.53,1.18,.76,1.61,.95,3.33,1.63,5.04,2.06-.5-.44-1.52-.59-2.28-1.21,2.25,1.05,4.3,1.49,6.02,1.62,1.73,.13,3.15-.04,4.31-.36,.58-.15,1.1-.36,1.56-.57,.46-.23,.86-.47,1.22-.73,.36-.27,.66-.55,.93-.84,.27-.29,.5-.6,.7-.91,.66-1.05,.18-2.21-.38-3.23-.44-.77-1.24-1.55-1.48-2.37-.09-.32-.53-.48-.96-.66-.22-.09-.44-.18-.62-.28-.18-.1-.32-.23-.38-.37-.06,.19-.12,.38-.2,.62-.93-.4-1.53-.87-2.45-1.24-.48,.1-.31,.55-.81,.98-.14-.32-.23-.52-.4-.99-.72,1.09-2.18,.97-3.61,.24-.23-.11-.45-.24-.67-.36-.22-.12-.43-.26-.64-.4-.1-.07-.22-.14-.31-.21l-.27-.22c-.18-.14-.38-.28-.53-.44l-.25-.23c-.08-.08-.17-.15-.24-.23-.14-.16-.29-.32-.44-.47-.12-.17-.25-.33-.38-.49-.13-.16-.22-.33-.34-.49-.51-.77-.8-1.63-.88-2.54-.08-.91,.04-1.86,.33-2.84,.11-.31,.19-.62,.37-.92l.23-.46,.29-.44c.37-.6,.85-1.11,1.32-1.62-.3,.3-.65,.61-.98,1.02,0-.12-.01-.19,.02-.23,.51-.72,1.25-1.44,2.02-2.01,.09-.08,.18-.15,.28-.21,.09-.07,.19-.13,.28-.2,.09-.07,.18-.14,.26-.2,.09-.06,.18-.12,.26-.18,.17-.12,.32-.24,.46-.37,.15-.11,.28-.22,.39-.34,.8-.83,1.92-1.26,3.03-1.42,1.12-.15,2.22-.06,3.28,.07,1.14,.13,2.27,.61,3.22,1.36,.96,.74,1.74,1.75,2.31,2.87,.09,.18,.19,.35,.29,.52,.09,.18,.19,.37,.28,.54,.51,.98,.95,2.02,1.28,3.13,.33,1.1,.58,2.25,.74,3.4,.15,1.16,.24,2.35,.23,3.49l-.02,.85c0,.28-.05,.56-.08,.84-.03,.57-.16,1.12-.25,1.68-.9,4.47-3.49,8.63-6.88,12.07-.83,.81-1.86,1.5-2.8,2.19-1.46,1.07-2.97,2.06-4.53,2.93-1.55,.87-3.16,1.62-4.84,2.17-1.68,.54-3.45,.88-5.26,.78-1.8-.08-3.65-.65-5.22-1.78,1.14,.76,2.03,1.44,3.04,2.05,1,.58,2.14,1.06,3.54,1.11,1.23,.03,2.45-.01,3.68-.16,1.22-.15,2.44-.42,3.62-.84,1.91-.69,3.75-1.55,5.49-2.58,.87-.51,1.72-1.07,2.53-1.67,.41-.3,.79-.62,1.19-.94,.39-.31,.76-.66,1.14-.99,.98-.92,1.91-1.88,2.74-2.93,.43-.51,.81-1.07,1.21-1.6l.55-.83,.28-.42,.14-.23c.21,.1,.41,.21,.62,.32-.07,.13-.15,.26-.23,.38-.15,.21-.3,.43-.44,.64-.14,.21-.29,.42-.42,.63-.14,.2-.27,.4-.37,.6,.56-.7,1.09-1.44,1.57-2.2,.43,.21,.88,.41,1.35,.59,.48,.16,1,.25,1.57,.27,.5,0,1,0,1.5,.01,.5,0,1.01-.02,1.52-.03,.51-.02,1.01-.08,1.52-.13,.51-.07,1.01-.18,1.51-.3,1.62-.45,3.2-1.02,4.72-1.73,1.52-.7,2.96-1.58,4.3-2.57,1.78-1.33,3.3-2.95,4.68-4.65,.29-.32,.47-1.1,1.08-.86,.35,.13,.33,.34,.19,.58-.14,.24-.41,.51-.57,.72-.24,.34-.54,.66-.82,.98-.29,.31-.57,.61-.76,.94l.86-.86,.81-.91c.28-.3,.52-.62,.77-.94,.25-.32,.51-.63,.74-.97,.97-1.3,1.81-2.7,2.59-4.13,.76-1.36,1.21-2.92,1.57-4.43,.38-1.52,.59-3.01,1-4.39,.16-.63,.32-1.26,.38-1.89,.04-.32,.06-.64,.09-.95,0-.32,0-.64-.01-.96-.02-.32-.02-.65-.07-.96-.04-.32-.09-.63-.15-.95-.09-.64-.28-1.29-.47-1.96,.36,.3,.53,.79,.7,1.27,.14,.48,.29,.95,.66,1.22Zm-31.75,27.23c.1-.2,.2-.44,.32-.64,.15-.28,.34-.49,.62-.47,.52,.03,.16,.64-.17,1.17-.26-.01-.52-.03-.78-.06Z"/>
      <path class="cls-1" d="M190.9,6.88c-.8-1.05-2.2-1.46-3.48-1.76-.98-.22-2.07-.21-3.01-.59-.35-.14-.7,0-1.03,.17-.33,.16-.68,.31-1.01,.21,.17,.16,.35,.32,.57,.52-.35,.18-.71,.29-1.04,.41-.33,.13-.66,.26-.98,.49-.03,.41,.48,.57,.78,1.2-.37-.09-.6-.15-1.11-.29,.91,1.21,.45,2.27-.47,3.23-1.17,1.21-2.56,2.29-3.8,3.43-1.46,1.33-3.16,2.4-4.82,3.56-1.05,.74-2.27,1.28-3.44,1.85,.36-.15,.77-.31,1.23-.5-.04,.11-.05,.19-.09,.22-1.41,.84-3.44,1.45-4.23,2.41-1.4,1.7-3.57,2-5.3,3.02-1.84,1.09-3.98,1.73-6.15,2.11-.33,.06-.68,.15-1.01,.26-7.16,2.28-14.41,4.19-21.62,6.25-.87,.24-1.82,.27-2.72,.46-2.77,.6-5.37,1.47-7.98,2.35-2.61,.86-5.25,1.69-8.07,2.17,1-.21,1.84-.04,2.69,.16,.84,.19,1.69,.39,2.66,.25,1.71-.26,3.47-.2,5.23-.52,2.85-.53,5.74-.94,8.57-1.58,1.89-.42,3.73-.99,5.6-1.49,.36-.1,.91-.55,1.22,.01,.35,.64-.5,.61-.93,.76-.68,.25-1.47,.3-2.04,.64,2.7-.59,5.39-1.32,8.09-1.89,2.58-.55,5.11-1.88,7.52-2.05,2.2-.14,4.12-.67,6.26-1.59-.41,.75-1.54,.76-1.84,1.54,1.53-.76,3-1.03,4.48-1.25,.26-.04,.57-.25,.78-.07,.71,.62,.71,.61,1.88,.21,1.26-.43,2.52-.85,3.84-1.16-1.01,.45-2.03,.88-3.06,1.3,3.69-1.2,7.39-2.36,11.09-3.76,3.7-1.41,7.42-3.06,11.01-5.34,2.02-1.28,3.71-3.06,5.05-5.08-.51,.11-.77,.8-1.42,1.03,.59-.58,1.08-1.18,1.51-1.75,.42-.59,.78-1.15,1.05-1.72,.14-.28,.27-.55,.38-.82,.11-.27,.2-.54,.27-.8,.08-.26,.14-.52,.19-.76,.05-.25,.08-.5,.1-.74,.18-1.92-.47-3.46-1.42-4.71Z"/>
      <path class="cls-1" d="M110.2,30.53c.68,.08,1.35,.17,2.13,.02,1.36-.27,2.77-.33,4.16-.66,2.27-.53,4.56-1,6.81-1.63,1.5-.41,2.96-.94,4.44-1.42,.29-.09,.72-.44,.97-.08,.28,.41-.39,.45-.74,.59-.54,.22-1.16,.31-1.62,.58,2.14-.6,4.27-1.3,6.4-1.9,2.04-.58,4.04-1.7,5.94-2.02,1.73-.28,3.24-.81,4.93-1.64-.33,.55-1.21,.66-1.47,1.22,1.21-.65,2.36-.97,3.52-1.26,.2-.05,.45-.22,.6-.12,.54,.36,.54,.35,1.45-.03l1.48-.61c.49-.2,1-.37,1.51-.55-.79,.41-1.59,.8-2.38,1.19,2.88-1.17,5.74-2.34,8.57-3.71,2.83-1.37,5.63-2.95,8.29-5.01,.37-.29,.74-.59,1.08-.91,.34-.34,.66-.69,.98-1.05,.16-.18,.31-.36,.46-.54,.15-.18,.29-.39,.43-.58,.28-.4,.54-.8,.8-1.21-.36,.13-.57,.67-1.03,.92,.42-.51,.8-.99,1.12-1.47,.3-.5,.56-.97,.78-1.42,.11-.22,.21-.44,.29-.66,.08-.22,.14-.44,.2-.65,.12-.42,.2-.82,.24-1.19,.11-.73,.02-1.42-.12-2.01-.15-.59-.39-1.09-.69-1.54-.5-.75-1.42-.94-2.28-1.04-.66-.07-1.41,.06-2.03-.13-.23-.07-.47,.1-.7,.28-.23,.18-.5,.34-.72,.3,.11,.11,.22,.21,.36,.35-.26,.19-.51,.33-.75,.48-.12,.07-.23,.16-.35,.24-.13,.08-.25,.18-.37,.29-.06,.34,.3,.39,.47,.85-.26-.02-.41-.03-.77-.07,.6,.85,.16,1.71-.53,2.6-.24,.26-.49,.53-.73,.79-.25,.26-.48,.54-.75,.78-.26,.25-.52,.5-.77,.76-.13,.13-.25,.26-.37,.38-.13,.12-.26,.25-.39,.37-.29,.29-.6,.57-.9,.85-.31,.28-.64,.53-.96,.79-.63,.54-1.32,1.02-1.97,1.54-.41,.34-.88,.61-1.33,.9-.23,.14-.46,.28-.69,.42-.23,.13-.47,.26-.7,.4,.29-.15,.62-.29,.97-.49-.04,.09-.04,.14-.08,.17-.57,.37-1.24,.72-1.86,1.08-.63,.34-1.18,.69-1.5,1.07-.57,.66-1.28,1.11-2.02,1.49-.74,.37-1.5,.71-2.2,1.14-1.47,.94-3.15,1.57-4.86,2.02-.26,.07-.53,.16-.8,.27-5.67,2.2-11.42,4.09-17.17,5.99-.69,.22-1.45,.31-2.17,.5-2.21,.6-4.28,1.35-6.36,2.09-2.08,.74-4.18,1.44-6.42,1.91,.79-.19,1.47-.12,2.15-.04Z"/>
      <path class="cls-1" d="M74.37,64.65c-.37-.7-.81-1.33-1.27-1.95-.24-.3-.48-.59-.72-.88-.24-.27-.47-.5-.7-.76-.94-.98-1.97-1.88-3.05-2.65-1.84-1.36-3.95-2.33-6.08-3-2.13-.67-4.28-1-6.36-1.19-2.16-.18-4.03-.28-5.36-.74,1.34-2.47,2.23-5.19,2.78-7.92,.64-3.18,.84-6.41,.75-9.61,0-.29-.03-.6-.09-.88-.4-1.83-.65-3.66-.54-5.51,.03-.44,0-.87-.06-1.3-.05-.43-.14-.87-.2-1.3-.13-.88-.21-1.76,.06-2.74,.32-1.12-.48-2.87-.88-4.32-.01-.04,.04-.1,.09-.21,.19,.41,.34,.78,.49,1.12-.36-1.14-.87-2.26-1.21-3.43-.55-1.84-1.4-3.58-2.22-5.39-.71-1.55-1.79-3.03-2.91-4.46-.43-.57-.82-1.12-.98-1.72-.18-.59-.16-1.24,.18-1.97-.53,.18-.77,.26-1.13,.4,.14-.75,.65-.99,.46-1.48-.46-.24-.88-.36-1.31-.44-.43-.08-.86-.12-1.33-.21,.12-.3,.21-.53,.3-.76-.3,.22-.75,.15-1.19,.11-.45-.03-.89-.03-1.13,.28-.32,.41-.73,.76-1.13,1.12-.41,.36-.81,.72-1.13,1.12-.86,1.05-1.55,2.37-1.74,3.7-.23,1.58-.36,3.03-.26,4.3,.05,.63,.17,1.21,.39,1.76,.22,.56,.56,1.08,1.05,1.64-.4,0-.4-.42-.74-.32,.45,1,.97,1.93,1.83,2.74,3.05,2.89,5.94,7.34,7.11,12.48l-.14-1.12c-.06-.37-.11-.74-.17-1.11,.39,.84,.62,1.72,.79,2.62,.16,.84,.13,.84,.99,1.05,.25,.06,.19,.33,.26,.51,.4,1.01,.69,2.08,.5,3.31,.62-.42,.25-1.19,.79-1.69-.07,1.74,.04,3.17,.51,4.79,.25,.89,.19,1.87,.03,2.85-.15,.98-.41,1.97-.51,2.94-.21,2.05-.82,4.04-1.51,5.92,.18-.17,.28-.41,.37-.66,.1-.25,.18-.51,.3-.75,.16-.3,.11-.96,.74-.6,.57,.32,.11,.69,.01,.95-.46,1.23-1.06,2.37-1.67,3.49-.11-.19-.25-.32-.67-.37-1.99,.57-3.13,1.34-4.77,2.19-.18-.28-.33-.5-.47-.71-.18,.41-.94,.83-1.66,1.27-.72,.44-1.39,.91-1.42,1.33-.04,.57-.29,1.2-.55,1.83-.26,.64-.53,1.28-.64,1.87-.19,1.02-.21,2.05,.18,2.88,0,0-.01,0-.02,0,0,0,.01,0,.02,0,.2,.43,.5,.8,.94,1.09,1.54,1.02,3.43,1.76,6.01,2.07,1.29,.16,2.75,.23,4.42,.24,.82,0,1.7,0,2.66,0,.94,0,1.93-.01,2.97,.02-.78,.28-1.65,.02-2.18,.37,.77,.05,1.51,.14,2.24,.21,.72,.1,1.44,.18,2.11,.31,1.37,.22,2.62,.53,3.79,.85,1.03,.3,1.96,.7,2.81,1.22,.2,.15,.42,.27,.61,.43,.19,.15,.43,.33,.52,.41,.28,.2,.48,.42,.67,.65,.37,.46,.65,1.04,.76,1.87,0,.1,.02,.21,.04,.32,0,.11,0,.22,0,.34,.01,.11,0,.23,0,.35-.01,.12,0,.24-.02,.36-.04,.49-.16,1.02-.31,1.56-.34,1.07-.82,2.13-1.53,3.1l-.27,.37-.3,.36c-.19,.25-.42,.47-.63,.7-.46,.45-.94,.9-1.48,1.31-1.06,.84-2.3,1.56-3.63,2.19-.34,.16-.66,.3-1.02,.45l-1.11,.44-.56,.22-.57,.19c-.38,.13-.76,.26-1.14,.39,.87-.26,1.76-.49,2.62-.78,.89-.28,1.68-.56,2.46-.88l-.68,.37-.7,.34c-.5,.22-1.02,.43-1.53,.63-1.04,.39-2.09,.75-3.16,1.04-1,.3-1.51,.39-1.84,.59-.33,.19-.47,.44-.77,.96-.18,.3-.81,.31-1.24,.45-2.44,.76-5.02,1.3-7.97,1.17,.48,.31,1.19,.38,1.92,.39,.73,0,1.48,.03,2.06,.25-.51,.05-1.02,.05-1.52,.08-.5,.03-.99,.06-1.47,.07-.48,.02-.96,.04-1.43,.07-.47,.01-.94,.03-1.41,.05-1.87,.08-3.71,.16-5.63,.24-2.12,.09-4.43-.26-6.71-.89-2.29-.61-4.56-1.49-6.75-2.33-2.3-.89-4.52-2.05-6.55-3.45-2.04-1.4-3.89-3.06-5.41-4.96,.54,1.02,1.59,1.95,2.48,2.87,.28,.3,.75,.63,1.06,.93,.31,.29,.46,.57,.12,.76-.62,.34-1.36-.68-1.85-1.17-1.3-1.23-2.45-2.62-3.4-4.14-.47-.76-.9-1.54-1.25-2.36-.35-.81-.68-1.66-.88-2.5-.66-2.54-.43-5.29,.4-7.82,.85-2.54,2.26-4.87,4.01-6.85,1.08-1.21,2.2-2.34,3.43-3.33,1.23-.99,2.56-1.83,3.98-2.37,1.62-.6,2.94-1.21,4.41-1.58,.18-.04,.37-.09,.56-.13,.19-.02,.38-.05,.57-.07,.19-.02,.39-.05,.59-.05,.2,0,.4,0,.6,.01,.41,0,.82,.09,1.25,.18,.22,.04,.42,.12,.64,.2,.21,.08,.43,.17,.65,.26-1.21-.57-2.51-.92-3.83-1.07-1.32-.15-2.66-.1-3.97,.11-1.31,.22-2.6,.61-3.85,1.12-.63,.25-1.23,.55-1.84,.86l-.89,.5c-.3,.16-.58,.36-.87,.55-2.3,1.5-4.36,3.46-6.08,5.85-.85,1.2-1.59,2.52-2.19,3.96-.6,1.44-1.06,3-1.25,4.67-.04,.27-.04,.54-.06,.81-.01,.27-.04,.55-.03,.82l.03,.83c0,.14,.01,.28,.02,.42l.05,.42c.04,.28,.07,.55,.11,.83,.04,.27,.11,.55,.16,.82,.06,.27,.1,.54,.18,.81,.07,.27,.14,.53,.21,.79l.11,.41,.13,.38c.09,.25,.17,.51,.26,.76l.29,.74c.1,.25,.22,.48,.33,.73,.45,.96,.96,1.89,1.54,2.75,.57,.87,1.19,1.7,1.86,2.47,.67,.77,1.37,1.5,2.1,2.18,2.94,2.72,6.28,4.74,9.73,6.31,1.73,.78,3.5,1.45,5.3,2.01,.9,.28,1.81,.53,2.73,.75,.91,.2,1.82,.43,2.75,.58l1.38,.25,1.38,.19,.69,.1,.69,.07,1.39,.14c1.63,.13,1.45,.22,4.77,.18,.34,0,.02,0,1.82-.04,.34,0,.54-.04,1.48-.16,.6-.08,.32-.04,1.13-.15,.75-.1,1.22-.17,1.64-.23l1.6-.24,.76-.11,.79-.13c2.12-.32,4.22-.69,6.3-1.02,.49-.08-1.39,.23,1.47-.29,.5-.09,.98-.26,1.47-.4,.49-.13,.98-.3,1.47-.47l.73-.25c.24-.08,.49-.16,.75-.26,2.03-.73,4.72-1.77,6.87-2.91s3.4-2.29,4.34-3.24c2.57-2.59,2.18-2.89,3.17-4.8,.06-.12,.16-.18,.33-.36-.06,.15-.13,.3-.19,.45-.07,.14-.14,.29-.2,.43-.14,.28-.26,.55-.4,.81-.14,.25-.28,.5-.42,.74-.13,.24-.27,.47-.41,.69,.96-1.43,1.75-3.01,2.35-4.69,.6-1.69,1.02-3.5,1.18-5.4,.14-1.49,.08-3.06-.24-4.61-.31-1.55-.87-3.07-1.63-4.45Z"/>
      <path class="cls-1" d="M83.12,41.68c-.34-.35-.44-.76-.48-1.18-.01-.21-.02-.42-.05-.62-.03-.2-.1-.39-.19-.59-.36-.69-.45-1.48-.66-2.24-.36-1.24-.43-2.56-.37-3.87,0-.22,.03-.43,.04-.65,.02-.22,.01-.44,.04-.66l.09-.65,.05-.33c.02-.11,.05-.21,.08-.32,.04-.16-.07-.52,.34-.45,.47,.07,.22,.36,.19,.57-.05,.31-.19,.63-.12,.92,.07-.29,.12-.59,.22-.87l.13-.43c.04-.14,.08-.29,.15-.42,.11-.28,.23-.55,.35-.82,.15-.26,.3-.52,.45-.77,.15-.24,.32-.47,.45-.72,.13-.26,.29-.49,.46-.73,.16-.23,.32-.47,.54-.64,.21-.18,.42-.34,.66-.44,.91-.35,1.6-.76,2.41-1.38-.05,.46-.54,.51-.5,.99,.5-.51,1.12-.7,1.75-.8,.11-.02,.22-.14,.34-.02,.41,.42,.39,.4,.87,.22,.51-.2,1.05-.37,1.63-.44-.43,.19-.85,.38-1.26,.58,1.51-.52,3.18-.8,4.97-1.12,1.81-.33,3.77-.74,5.78-1.55,1.13-.46,2.15-1.28,2.96-2.34-.3,0-.47,.39-.85,.44,1.39-1.09,2.03-2.43,2.06-3.54,.02-.56-.1-1.08-.3-1.53-.22-.46-.52-.87-.87-1.23-.59-.6-1.52-.87-2.34-1.14-.63-.19-1.28-.32-1.87-.62-.23-.11-.4-.1-.57-.09-.08,0-.16,.01-.25,0-.09-.01-.18-.03-.28-.09,.12,.1,.24,.2,.39,.33-.18,.01-.34,0-.51,0-.17,0-.32-.01-.45,.03,.03,.19,.32,.37,.54,.73-.2-.12-.33-.19-.61-.36,.31,.39,.42,.7,.4,.96,0,.26-.17,.46-.37,.64-.53,.45-1.2,.81-1.8,1.25-.71,.53-1.55,.89-2.38,1.35-.52,.29-1.15,.45-1.75,.67,.19-.05,.4-.09,.63-.15-.02,.07-.02,.12-.05,.13-.72,.33-1.78,.5-2.18,1.05-.69,.96-1.82,1.02-2.67,1.65-.89,.67-1.93,1.14-3.04,1.6-.17,.07-.34,.18-.49,.28-.21,.14-.42,.3-.63,.45-.21,.15-.41,.32-.61,.49-.1,.09-.2,.17-.3,.26l-.29,.28-.57,.57c-.18,.19-.34,.41-.51,.61-.16,.21-.34,.41-.49,.63l-.43,.67-.21,.33-.18,.35c-.89,1.7-1.37,3.57-1.44,5.42-.09-.14-.17-.28-.25-.42-.15-.29-.43-.51-.67-.74-.25-.22-.46-.46-.53-.8-.06-.31-.17-.57-.34-.79-.16-.22-.38-.39-.65-.54,.38-.18,.43,.17,.83-.05-.43-.19-.63-.54-.81-.93-.03-.07-.15-.08-.07-.23,.25-.51,.24-.5-.02-.72-.27-.24-.54-.48-.76-.8,.26,.15,.53,.3,.78,.47-.78-.72-1.54-1.5-2.36-2.26-.82-.76-1.69-1.51-2.68-2.14-.28-.18-.58-.28-.89-.33-.32-.05-.64-.03-.97,.02,.07,.22,.28,.08,.39,.31-.84-.2-1.52,.09-2.01,.66-.5,.57-.82,1.42-1.04,2.36-.19,.79-.18,1.75-.16,2.59,.02,.65,.08,1.29,.06,1.95-.02,.5,.2,.58,.19,1.03,.03-.15,.05-.31,.09-.5,.11,.28,.16,.6,.29,.77,.09-.14,.11-.47,.24-.87,0,.23-.01,.37-.02,.69,.24-.96,.52-1.14,.8-1.1,.35,.05,.69,.19,1.05,.2,.43,.01,.8,.17,1.23,.23,.27,.04,.49,.21,.72,.33-.06-.06-.13-.12-.2-.19,.04-.04,.07-.08,.08-.07,.16,.05,.32,.16,.47,.25,.16,.08,.32,.12,.51,.02,.34-.18,.57-.13,.76-.03,.19,.1,.35,.24,.58,.27,.51,.06,.84,.41,1.02,.87,.03,.07,.07,.13,.12,.18,1.11,1.08,2,2.32,3.07,3.57,.13,.15,.11,.38,.21,.55,.29,.53,.79,.97,1.28,1.46,.49,.49,.99,1.03,1.24,1.68-.07-.13-.05-.26,0-.39,.7,1.03,1.53,1.92,2.36,2.77Zm-3.97-8.14c-.08-.04-.16-.1,.03-.25,0,.08-.02,.17-.03,.25Z"/>
      <path class="cls-1" d="M32.49,105.31c-.11,.02,19.12-1.51,7.53-1.03-.62,0-1.86,.06-2.97-.03-.59-.05-1.18-.19-1.76-.28l-.87-.15c-.29-.06-.58-.11-.87-.16-.58-.1-1.16-.14-1.76-.18-.39-.02-.79,.06-1.17,.01-3.14-.41-6.27-.73-9.36-1.28-.14-.02-.29-.04-.44-.04-.47,0-.93-.05-1.38-.14-.45-.09-.88-.21-1.28-.43-.37-.2-.79-.28-1.2-.41-.41-.13-.8-.29-1.1-.68-.17-.22-.47-.35-.82-.46-.35-.12-.74-.2-1.05-.35-.02,0-.02-.05-.04-.1,.2,.05,.38,.1,.55,.13-.52-.17-1.06-.33-1.55-.57-.19-.1-.38-.19-.58-.27l-.57-.29c-.38-.19-.76-.38-1.12-.59-.61-.39-1.29-.71-1.94-1.06-.48-.31-.78-.72-.42-1.46-.25,.17-.36,.24-.53,.36,.09-.35,.34-.53,.28-.72-.38-.07-.7,0-1.09,0,.09-.14,.16-.25,.23-.36-.31,.24-.74,0-1.06,.3-.42,.38-.97,.66-1.42,1-.6,.45-1.23,.98-1.5,1.62-.33,.76-.48,1.55-.27,2.34,.11,.39,.29,.81,.62,1.16,.32,.36,.76,.71,1.32,1.04-.3,0-.45-.25-.69-.2,.68,.67,1.5,1.15,2.42,1.45,3.31,1.02,6.64,1.42,9.91,2.04l-1.36-.41c.59,.03,1.15,.14,1.71,.27,.52,.12,.52,.11,.84-.28,.09-.12,.23-.03,.35-.03,.66-.03,1.31,.02,1.99,.28-.14-.37-.64-.3-.82-.66,.24,.08,.47,.15,.7,.2,.23,.05,.46,.08,.68,.1,.45,.05,.91,.04,1.39-.01,.53-.05,1.08,0,1.63,.12,.56,.11,1.12,.26,1.69,.27,.6,.02,1.19,.07,1.78,.13,.6,.04,1.19,.08,1.78,.11-.26-.12-.6-.08-.91-.14-.19-.04-.56,.06-.43-.31,.11-.33,.37-.14,.53-.13,.82,.08,1.64,.24,2.47,.26,.62,.02,1.25,.04,1.88,.04"/>
    </g>
  </g>
</svg>